<svg aria-hidden="true" style="position:absolute;width:0;height:0;overflow:hidden" xmlns="http://www.w3.org/2000/svg"><defs><symbol id="icon-leter" viewBox="0 0 43 32"><path fill="#2196f3" style="fill:var(--color1, #2196f3)" d="M38.667 0H4C1.795 0 0 1.795 0 4v24c0 2.205 1.795 4 4 4h34.667c2.205 0 4-1.795 4-4V4c0-2.205-1.795-4-4-4zm0 2.667c.181 0 .355.037.512.104L21.334 18.238 3.489 2.771c.151-.065.327-.104.512-.104h34.667zm0 26.666H4A1.333 1.333 0 0 1 2.667 28V5.587l17.792 15.421c.233.203.539.327.875.327s.642-.124.876-.328l-.002.001L40 5.587V28c0 .736-.597 1.333-1.333 1.333z"/></symbol><symbol id="icon-tag-line" viewBox="0 0 57 32"><path fill="#afb1b8" style="fill:var(--color2, #afb1b8)" d="M28.493 14.618a1.563 1.563 0 0 1-.322-1.065v.005-1.538c0-.471.107-.829.321-1.075.213-.245.581-.367 1.101-.366.489 0 .837.105 1.042.313.224.266.333.591.308.919v.362h-.875v-.366a1.799 1.799 0 0 0-.026-.358.34.34 0 0 0-.125-.212l-.001-.001a.499.499 0 0 0-.279-.084l-.039.001h.002l-.038-.001a.53.53 0 0 0-.297.09l.002-.001a.415.415 0 0 0-.145.232v.003a1.74 1.74 0 0 0-.035.351v.031-.002 1.866c-.014.18.025.36.112.524.045.056.104.1.172.126l.003.001a.48.48 0 0 0 .228.029H29.6a.47.47 0 0 0 .311-.086l-.002.001a.37.37 0 0 0 .13-.224v-.002c.02-.124.03-.249.027-.374v-.379h.875v.346a1.397 1.397 0 0 1-.305.969l.002-.003c-.201.228-.544.342-1.047.342s-.884-.122-1.1-.375zm3.644.016c-.221-.24-.332-.588-.332-1.05v-1.618c0-.457.11-.803.332-1.037s.59-.351 1.109-.35c.515 0 .882.117 1.103.35.221.235.333.58.333 1.037v1.617c0 .457-.112.807-.337 1.049s-.59.361-1.1.361-.886-.122-1.109-.359zm1.516-.389a.902.902 0 0 0 .105-.478v-1.981a.872.872 0 0 0-.105-.474l.002.005a.425.425 0 0 0-.176-.128l-.003-.001a.473.473 0 0 0-.233-.027h.002a.49.49 0 0 0-.235.028l.003-.001a.416.416 0 0 0-.179.128l-.001.001a.855.855 0 0 0-.105.469v1.99a.888.888 0 0 0 .105.479.605.605 0 0 0 .639.116l-.004.001a.563.563 0 0 0 .185-.118v-.01zm2.082-3.619h.942l.708 2.984.725-2.984h.916l.093 4.307h-.678l-.073-2.994-.699 2.994h-.544l-.724-3.005-.067 3.005h-.685l.085-4.307zm4.441 0h1.468c.845 0 1.268.407 1.268 1.223 0 .781-.445 1.171-1.335 1.17h-.5v1.914h-.906l.005-4.308zm1.254 1.841a.707.707 0 0 0 .498-.136.699.699 0 0 0 .131-.486 1.325 1.325 0 0 0-.046-.4l.002.009a.317.317 0 0 0-.067-.119.386.386 0 0 0-.112-.085l-.002-.001a.913.913 0 0 0-.357-.071l-.05.001h.002-.351v1.287h.352zm2.789-1.841h.973l.998 4.307h-.845l-.197-.993h-.868l-.203.993h-.857l.998-4.307zm.831 2.816-.339-1.808-.339 1.808h.677zm1.946-2.816h.635l1.213 2.457v-2.457h.752v4.307h-.603l-1.221-2.565v2.565h-.777l.002-4.307zm4.361 2.665-1.009-2.659h.85l.616 1.708.578-1.708h.832l-.997 2.659v1.642h-.869V13.29zm-21.465 3.526v.225h-.739v1.75h-.31v-1.75H28.1v-.225h1.792zm2.318 1.976h-.246a.105.105 0 0 1-.061-.019.1.1 0 0 1-.039-.045v-.001l-.214-.469h-1.026l-.213.469a.126.126 0 0 1-.033.053.108.108 0 0 1-.062.019h-.245l.906-1.975h.315l.917 1.968zm-1.501-.734h.855l-.363-.804a1.278 1.278 0 0 1-.064-.176l-.003-.01-.034.105-.033.083-.358.803zm3.062.539a1.018 1.018 0 0 0 .316-.023 1.018 1.018 0 0 0 .252-.085v-.444h-.365a.076.076 0 0 1-.046-.016c-.006-.004-.01-.01-.014-.016a.034.034 0 0 1-.004-.018v-.153h.703v.757c-.11.068-.237.123-.372.158l-.01.002c-.075.019-.15.033-.227.041a2.598 2.598 0 0 1-.265.012h-.011c-.159 0-.312-.027-.455-.077l.01.003a1.123 1.123 0 0 1-.364-.208l.002.001a.952.952 0 0 1-.231-.307l-.002-.006a.965.965 0 0 1-.083-.397v-.013.001-.012c0-.145.03-.283.084-.407l-.003.007a.907.907 0 0 1 .234-.313c.103-.089.227-.158.363-.205.155-.051.32-.076.485-.074.084 0 .169.005.252.017.074.011.146.027.215.05.064.02.124.047.181.078.055.031.108.065.158.103l-.087.122a.073.073 0 0 1-.029.026.093.093 0 0 1-.042.011.111.111 0 0 1-.057-.016h.001a.892.892 0 0 1-.094-.05l.005.003a.814.814 0 0 0-.115-.052l-.006-.002a1.027 1.027 0 0 0-.16-.043l-.007-.001a1.34 1.34 0 0 0-.218-.017h-.013.001-.011c-.121 0-.238.02-.346.057l.008-.002a.774.774 0 0 0-.267.156.672.672 0 0 0-.166.241l-.002.005a.917.917 0 0 0 .002.665l-.002-.006a.76.76 0 0 0 .445.405c.115.034.237.047.359.039zm2.888-.031h.989v.225h-1.291v-1.975h.309l-.007 1.75zm2.018.226h-.309v-1.975h.309v1.975zm1.153-1.966a.14.14 0 0 1 .047.036l1.324 1.489-.001-.035.001-.037v.002-1.472h.27v1.984h-.166a.14.14 0 0 1-.058-.012h.001a.162.162 0 0 1-.048-.037l-1.323-1.488v1.536h-.259v-1.975h.161c.018 0 .035.003.051.009zm3.923-.01v.217h-1.098v.652h.89v.21h-.89v.674h1.098v.218h-1.417v-1.971h1.417zm-32.467-12.2 13.757 3.372v11.818l-13.757-3.371V4.616zm-.882-1.008V17.01l15.52 3.806V7.417L10.404 3.61z"/><path fill="#afb1b8" style="fill:var(--color2, #afb1b8)" d="M18.722 27.036 3.2 23.227V9.828l15.522 3.807v13.401z"/><path fill="#afb1b8" style="fill:var(--color2, #afb1b8)" d="m10.661 4.465 13.578 3.33-5.774 4.987L4.886 9.45l5.776-4.986zm-.257-.856L3.2 9.828l15.522 3.808 7.202-6.22-15.52-3.807zm9.191 22.673 6.329-5.466-6.33-1.552v7.019z"/></symbol><symbol id="icon-union" viewBox="0 0 28 32"><path fill="#afb1b8" style="fill:var(--color2, #afb1b8)" d="m4.085 0 4.771 4.517-8.857-.005v21.915h23.149v-8.379l4.766 4.512V.001H4.084zm18.854 17.517L9.411 4.71h13.528v12.807zm-4.2 5.703H3.663V8.482h1.066v13.74H18.74v.997zM7.224 29.345l-.557 1.147-.557-1.147h-.467l.813 1.529v.891h.422v-.891l.811-1.529h-.465zm.7 2.42.196-.564h.938l.197.564h.439l-.916-2.42H8.4l-.914 2.42h.437zm.664-1.906.351 1.004h-.701l.351-1.004zm2.218.945a.544.544 0 0 0-.091.303v.004c0 .204.072.37.214.497s.336.19.575.19a1 1 0 0 0 .618-.195l.136.161h.468l-.355-.421c.14-.191.209-.435.209-.733h-.351a.973.973 0 0 1-.101.444l-.468-.552.165-.12a.922.922 0 0 0 .249-.249l.002-.003a.53.53 0 0 0 .076-.275v-.013a.495.495 0 0 0-.169-.374h-.001a.61.61 0 0 0-.408-.157h-.025.001c-.195 0-.35.056-.465.166s-.173.259-.173.449c0 .078.018.157.054.241.038.083.104.184.197.302-.179.129-.3.24-.36.334zm1.092.536a.613.613 0 0 1-.382.136h-.02a.395.395 0 0 1-.27-.106.36.36 0 0 1-.108-.259v-.014.001c0-.129.067-.245.2-.346l.052-.037.528.624zm-.434-1.073c-.114-.141-.172-.257-.172-.351 0-.081.024-.148.07-.201a.239.239 0 0 1 .178-.081h.01-.001.009c.067 0 .127.026.173.068a.214.214 0 0 1 .072.161v.009a.3.3 0 0 1-.103.226l-.052.041-.184.127zm3.94 1.315c.166-.145.261-.347.286-.605h-.419c-.022.173-.075.296-.158.37s-.208.112-.372.112c-.18 0-.318-.069-.412-.206s-.14-.337-.14-.599v-.214c.003-.259.052-.453.15-.587a.494.494 0 0 1 .422-.201c.157 0 .276.039.357.116s.133.202.153.376h.419c-.027-.265-.121-.47-.285-.615s-.378-.218-.645-.218a.978.978 0 0 0-.525.142.925.925 0 0 0-.345.396l-.002.006a1.396 1.396 0 0 0-.122.576v.03-.001.226c.003.223.045.418.125.587s.193.298.339.39a.955.955 0 0 0 .511.136c.276 0 .497-.072.663-.216zm2.471-.339c.082-.18.123-.388.123-.625v-.158c0-.216-.047-.421-.131-.605l.004.009a.932.932 0 0 0-.35-.406l-.004-.002c-.152-.095-.326-.143-.524-.143s-.372.048-.525.144a.939.939 0 0 0-.354.414c-.079.175-.125.38-.125.595v.032-.002.136c.001.232.043.436.126.613a.95.95 0 0 0 .356.411.98.98 0 0 0 .525.143.971.971 0 0 0 .526-.143.941.941 0 0 0 .352-.413zm-.45-1.369c.102.143.152.349.152.618v.126c0 .272-.05.48-.151.622a.49.49 0 0 1-.429.213h-.017a.503.503 0 0 1-.413-.216l-.001-.002c-.104-.145-.155-.351-.155-.617v-.14c.002-.26.054-.462.156-.603a.498.498 0 0 1 .409-.215h.018-.001c.187 0 .33.072.431.214z"/></symbol><symbol id="icon-Vector" viewBox="0 0 20 32"><path fill="#757575" style="fill:var(--color3, #757575)" d="M17 0H3C1.346 0 0 1.346 0 3v26c0 1.654 1.346 3 3 3h14c1.654 0 3-1.346 3-3V3c0-1.654-1.346-3-3-3zM3 2h14a1 1 0 0 1 1 1v21H2V3a1 1 0 0 1 1-1zm14 28H3a1 1 0 0 1-1-1v-3h16v3a1 1 0 0 1-1 1z"/></symbol><symbol id="icon-facebook" viewBox="0 0 18 32"><path fill="#afb1b8" style="fill:var(--color2, #afb1b8)" d="M13.328 5.312h2.923V.224A36.496 36.496 0 0 0 12.143 0h-.156.008C7.782 0 4.896 2.65 4.896 7.52V12H.25v5.688h4.646V32h5.698V17.69h4.462l.707-5.69h-5.168V8.08c0-1.643.443-2.768 2.734-2.768z"/></symbol><symbol id="icon-foster-peters" viewBox="0 0 65 32"><path fill="#2196f3" style="fill:var(--color1, #2196f3)" d="M10.016 9.983h-.002c-1.827 0-3.308 1.316-3.308 2.94v.002c0 1.624 1.481 2.94 3.308 2.94h.002c1.827 0 3.308-1.317 3.308-2.94v-.002c0-1.624-1.481-2.941-3.308-2.941zm24.418-.939c-.005-2.255-1.016-4.418-2.81-6.012S27.398.539 24.861.534c-2.539.004-4.972.902-6.767 2.497s-2.806 3.757-2.811 6.013v12.437s19.15-1.896 19.152-12.434v-.002zM0 25.562c.005 1.57.709 3.073 1.957 4.183s2.94 1.735 4.706 1.739c1.765-.005 3.457-.63 4.706-1.739s1.952-2.613 1.957-4.181V16.91S.002 18.23.002 25.562zm6.662 1.55c-.345 0-.682-.091-.969-.261a1.617 1.617 0 0 1-.638-.686l-.004-.009a1.394 1.394 0 0 1-.097-.904l-.002.009a1.5 1.5 0 0 1 .477-.794 1.81 1.81 0 0 1 .882-.423l.011-.002a1.939 1.939 0 0 1 1.021.092l-.013-.004c.319.117.592.316.783.571s.294.555.294.861c.001.204-.043.407-.131.596a1.555 1.555 0 0 1-.376.503l-.002.001a1.77 1.77 0 0 1-.567.338 1.907 1.907 0 0 1-.668.119h-.001v-.006zm13.466-.854h-1.286v1.328h-.67v-3.251h2.117v.542h-1.447v.84h1.286v.54zm3.218-.223c0 .32-.056.6-.169.841s-.276.427-.488.558a1.32 1.32 0 0 1-.698.197h-.025.001c-.27 0-.51-.065-.722-.194a1.296 1.296 0 0 1-.487-.546l-.003-.008a1.882 1.882 0 0 1-.177-.804v-.028.001-.16c0-.32.058-.602.172-.844a1.285 1.285 0 0 1 1.212-.757c.271 0 .51.066.721.197.211.13.374.316.489.56.116.242.174.523.174.841v.145zm-.678-.148c0-.341-.061-.6-.183-.777a.596.596 0 0 0-.496-.266l-.028.001h.001l-.025-.001a.597.597 0 0 0-.494.262l-.001.002c-.122.174-.184.43-.185.768v.158c0 .331.061.589.183.772s.297.274.527.274l.026.001a.59.59 0 0 0 .49-.261l.001-.002c.12-.177.181-.434.183-.773v-.158zm2.85.846.001-.019a.34.34 0 0 0-.133-.27l-.001-.001c-.089-.069-.25-.14-.482-.214a3.473 3.473 0 0 1-.57-.232l.019.009c-.37-.2-.554-.469-.554-.806 0-.175.049-.332.147-.469a.975.975 0 0 1 .427-.324c.186-.077.395-.116.625-.116.232 0 .439.042.621.127a.97.97 0 0 1 .421.355.926.926 0 0 1 .152.522h-.67a.434.434 0 0 0-.14-.346c-.094-.084-.226-.125-.395-.125-.164 0-.291.035-.382.105a.325.325 0 0 0-.136.265v.008c0 .106.053.194.158.266.107.071.264.138.471.2.381.114.658.257.833.427s.261.381.261.634c0 .281-.107.503-.32.663s-.498.239-.859.239c-.25 0-.478-.046-.683-.137a1.11 1.11 0 0 1-.469-.373l-.002-.003a.962.962 0 0 1-.16-.533v-.022.001h.671c0 .358.214.538.643.538a.634.634 0 0 0 .373-.096.32.32 0 0 0 .134-.259v-.013.001zm3.574-1.855h-.995v2.708h-.67v-2.708h-.981v-.542h2.647v.542zm2.339 1.3h-1.285v.871h1.509v.538h-2.178v-3.251h2.174v.542h-1.505v.775h1.286v.524zm1.819.218h-.533v1.19h-.67v-3.251h1.208c.384 0 .68.086.888.257s.312.413.312.725a.996.996 0 0 1-.145.556.977.977 0 0 1-.429.35l-.006.002.702 1.328v.03h-.718l-.61-1.189zm-.533-.542h.541c.168 0 .297-.042.39-.126a.46.46 0 0 0 .139-.33l-.001-.026v.001c0-.154-.043-.274-.131-.362s-.219-.132-.4-.132h-.538v.975zm4.058.587v1.145h-.67v-3.251h1.268c.244 0 .459.045.643.134a.98.98 0 0 1 .429.382c.099.164.149.35.149.56 0 .318-.11.57-.328.754-.218.183-.519.275-.904.275h-.587zm0-.542h.598c.178 0 .312-.042.404-.125a.454.454 0 0 0 .141-.357l.001-.024a.534.534 0 0 0-.141-.363.527.527 0 0 0-.389-.152h-.614v1.021zm4.236.279h-1.285v.871h1.509v.538h-2.178v-3.251h2.174v.542h-1.505v.775h1.286v.524zm3.108-1.3h-.996v2.708h-.67v-2.708h-.982v-.542h2.648v.542zm2.339 1.3h-1.285v.871h1.509v.538h-2.179v-3.251h2.174v.542h-1.504v.775h1.285v.524zm1.819.218h-.533v1.19h-.67v-3.251h1.208c.384 0 .68.086.888.257s.312.413.312.725c0 .222-.049.408-.145.556a.982.982 0 0 1-.429.35l-.006.002.703 1.328v.03h-.718l-.61-1.189zm-.533-.542h.54c.168 0 .298-.042.39-.126a.46.46 0 0 0 .139-.331l-.001-.025v.001a.484.484 0 0 0-.132-.362c-.086-.088-.219-.132-.399-.132h-.538v.975zm3.935.88.001-.019a.34.34 0 0 0-.134-.271l-.001-.001c-.089-.069-.25-.14-.482-.214a3.473 3.473 0 0 1-.57-.232l.019.009c-.37-.2-.554-.469-.554-.806 0-.175.05-.332.147-.469a.975.975 0 0 1 .427-.324c.186-.077.395-.116.625-.116.232 0 .439.042.621.127a.97.97 0 0 1 .421.355.926.926 0 0 1 .152.522h-.67a.434.434 0 0 0-.14-.346c-.094-.084-.226-.125-.395-.125-.164 0-.291.035-.382.105a.326.326 0 0 0-.137.265v.007c0 .106.053.194.159.266s.264.138.471.2c.381.114.658.257.833.427s.261.381.261.634c0 .281-.107.503-.32.663s-.499.239-.859.239c-.25 0-.478-.046-.683-.137a1.11 1.11 0 0 1-.469-.373l-.002-.003a.962.962 0 0 1-.16-.533v-.022.001h.671c0 .358.214.538.643.538a.634.634 0 0 0 .373-.096.317.317 0 0 0 .134-.26v-.013.001z"/></symbol><symbol id="icon-linkedin-1" viewBox="0 0 32 32"><path fill="#afb1b8" style="fill:var(--color2, #afb1b8)" d="M31.992 32H32V20.262c0-5.741-1.237-10.163-7.947-10.163-3.227 0-5.392 1.77-6.277 3.45h-.093v-2.914h-6.365v21.363h6.627V21.42c0-2.786.528-5.48 3.978-5.48 3.398 0 3.448 3.179 3.448 5.658V32h6.621zM.528 10.635h6.635V32H.528V10.635zM3.843 0A3.843 3.843 0 0 0 0 3.843c0 2.12 1.722 3.878 3.843 3.878 2.12 0 3.842-1.757 3.842-3.878S5.965.002 3.844 0z"/></symbol><symbol id="icon-second-company" viewBox="0 0 34 32"><path fill="#afb1b8" style="fill:var(--color2, #afb1b8)" d="M5.643 31.315c.012 0 .024.003.035.008s.021.011.03.018l.166.158c-.13.129-.289.232-.468.302a1.78 1.78 0 0 1-.62.109l-.045-.001h.002a1.742 1.742 0 0 1-.622-.101 1.365 1.365 0 0 1-.47-.286l.001.001a1.294 1.294 0 0 1-.301-.432l-.003-.008a1.442 1.442 0 0 1-.106-.548v-.018.001-.029c0-.388.168-.737.436-.977l.001-.001a1.52 1.52 0 0 1 .498-.287 1.96 1.96 0 0 1 .642-.101h.04c.199 0 .39.034.568.096l-.012-.004c.165.062.316.149.447.255l-.139.169a.143.143 0 0 1-.035.03h-.001a.098.098 0 0 1-.048.013h-.008a.132.132 0 0 1-.062-.018h.001l-.074-.046-.104-.058a1.182 1.182 0 0 0-.321-.1l-.007-.001a1.376 1.376 0 0 0-.23-.018h-.019.001-.015c-.16 0-.313.028-.455.079l.009-.003a1.07 1.07 0 0 0-.363.214l.001-.001a.977.977 0 0 0-.235.339 1.117 1.117 0 0 0-.085.432v.017-.001.019c0 .157.031.307.088.444l-.003-.008a.953.953 0 0 0 .576.548c.136.049.281.073.427.072.085.001.17-.004.254-.014.211-.022.4-.106.55-.234l-.001.001a.133.133 0 0 1 .078-.029zm4.798-.798v.017c0 .197-.041.384-.116.553l.003-.009a1.24 1.24 0 0 1-.311.435l-.001.001c-.138.123-.302.22-.481.283l-.01.003a2.03 2.03 0 0 1-1.278-.004l.014.004a1.471 1.471 0 0 1-.489-.288l.001.001a1.28 1.28 0 0 1-.313-.432l-.003-.008a1.454 1.454 0 0 1 .004-1.134l-.004.01c.071-.165.178-.315.316-.442a1.45 1.45 0 0 1 .488-.277 2.003 2.003 0 0 1 1.278.004l-.014-.004c.184.065.351.162.49.286a1.296 1.296 0 0 1 .426 1zm-.436 0v-.024a1.19 1.19 0 0 0-.082-.436l.003.008a.935.935 0 0 0-.566-.548l-.007-.002a1.455 1.455 0 0 0-.928.003l.01-.003a.997.997 0 0 0-.352.214.914.914 0 0 0-.223.331l-.002.006a1.321 1.321 0 0 0 .003.911l-.003-.009c.101.261.309.46.569.547l.007.002c.296.097.622.097.918 0a.97.97 0 0 0 .35-.211.933.933 0 0 0 .222-.338c.056-.145.082-.298.079-.451zm3.71.473.043.101c.017-.036.031-.069.048-.101.019-.039.037-.072.056-.103l-.002.004 1.061-1.677c.021-.029.04-.047.061-.053s.047-.009.073-.009h.015-.001.314v2.728h-.372v-2.09a.68.68 0 0 1 0-.096v.002l-1.069 1.701a.158.158 0 0 1-.062.061h-.001a.19.19 0 0 1-.09.023h-.064a.183.183 0 0 1-.09-.023h.001a.15.15 0 0 1-.061-.061v-.001l-1.099-1.711v2.189h-.359v-2.722h.328c.026 0 .051.003.075.01h-.002c.026.011.046.03.058.053l1.084 1.678c.02.028.038.06.053.094l.001.004zm3.995-.135v1.021h-.414v-2.723h.926c.175-.003.349.018.517.059.134.034.259.091.366.17.089.07.159.16.205.262l.002.004c.05.111.073.23.071.349v.017a.755.755 0 0 1-.299.603l-.002.001a1.062 1.062 0 0 1-.368.18c-.14.04-.301.064-.468.064h-.035l-.501-.008zm0-.293h.503c.109.002.218-.013.322-.041a.69.69 0 0 0 .234-.119l-.002.001a.522.522 0 0 0 .191-.404v-.007l.001-.029a.453.453 0 0 0-.043-.195l.001.003a.529.529 0 0 0-.144-.185l-.001-.001a.888.888 0 0 0-.562-.146h.003-.503v1.122zm5.584 1.318h-.334a.15.15 0 0 1-.086-.026h.001a.161.161 0 0 1-.054-.062v-.001l-.282-.658H21.12l-.293.658a.156.156 0 0 1-.141.088h-.333l1.246-2.728h.432l1.263 2.728zm-2.057-1.013h1.172l-.494-1.11a1.875 1.875 0 0 1-.094-.256l-.048.142a.876.876 0 0 1-.046.116l-.49 1.108zm3.852-1.701a.173.173 0 0 1 .062.048l1.818 2.056v-2.117h.372v2.728h-.212a.204.204 0 0 1-.082-.017h.001a.221.221 0 0 1-.066-.05l-1.816-2.054.001.047-.002.049v-.002 2.027h-.372v-2.728h.22c.025 0 .051.005.075.013zm5.313 1.629v1.083h-.415v-1.082l-1.149-1.643h.381a.16.16 0 0 1 .081.023h-.001a.234.234 0 0 1 .056.062l.718 1.06a1.159 1.159 0 0 1 .128.241l.053-.117c.021-.043.044-.084.071-.124l.709-1.067a.293.293 0 0 1 .053-.058.137.137 0 0 1 .082-.027h.384l-1.15 1.65zm-16.893-6.219c.181.02.363.036.549.05 2.803-1.09 5.174-2.872 6.818-5.126s2.485-4.878 2.421-7.546l-3.09-2.683c.629 2.84.335 5.775-.848 8.478s-3.208 5.067-5.849 6.827z"/><path fill="#afb1b8" style="fill:var(--color2, #afb1b8)" d="m12.407 24.451.083.015c2.822-1.755 4.973-4.203 6.176-7.031s1.402-5.904.571-8.83l-4.4-3.822c1.779 3.142 2.496 6.659 2.065 10.141-.43 3.482-1.989 6.786-4.495 9.528zm14.921-9.345c-.747 2.931-2.563 5.574-5.177 7.538a16.213 16.213 0 0 1-2.367 1.49l-.092.043c2.129-.543 4.085-1.504 5.718-2.808s2.901-2.917 3.703-4.714l-1.784-1.549z"/><path fill="#afb1b8" style="fill:var(--color2, #afb1b8)" d="m26.628 14.674-2.54-2.207c-.049 2.517-.872 4.976-2.385 7.122s-3.66 3.902-6.217 5.084h.012c.57 0 1.139-.03 1.705-.088 2.39-.848 4.502-2.197 6.146-3.926s2.771-3.785 3.278-5.985zM12.774 3.17 9.743.534c-2.709.91-5.039 2.509-6.686 4.588S.526 9.664.518 12.188c.01 2.789 1.09 5.495 3.07 7.69 1.979 2.194 4.744 3.754 7.858 4.43 2.779-2.942 4.407-6.578 4.646-10.379s-.924-7.57-3.319-10.758zM33.63 14.268c-.011-3.308-1.528-6.478-4.221-8.818s-6.342-3.658-10.15-3.668h-.028c-1.831 0-3.59.305-5.231.867l.114-.034L32.67 18.737c.605-1.313.958-2.849.96-4.468v-.001z"/></symbol><symbol id="icon-antenna" viewBox="0 0 30 32"><path fill="#212121" style="fill:var(--color4, #212121)" d="m29.859 22.098-8.443-8.505.937-4.616c.225.09.485.144.758.146h.033a2.16 2.16 0 1 0-2.029-1.42l-.005-.015-4.96.606L8.059.161a.53.53 0 0 0-.376-.16.536.536 0 0 0-.373.155L5.798 1.66a.535.535 0 0 0 0 .754l.814.825c-1.143 2.062-1.816 4.522-1.816 7.139 0 4.106 1.656 7.824 4.336 10.525l-.001-.001a.49.49 0 0 0 .146.097 2.986 2.986 0 0 0-.052.546v6.188h-6.4a2.669 2.669 0 0 0-2.667 2.666v1.067c0 .295.239.534.534.534h24.534a.534.534 0 0 0 .533-.534v-1.067a2.67 2.67 0 0 0-2.666-2.666h-6.4v-2.742a14.784 14.784 0 0 0 10.166-1.502l-.077.039.818.823a.534.534 0 0 0 .376.16.536.536 0 0 0 .373-.155l1.512-1.504a.535.535 0 0 0 0-.754zM22.366 6.233a1.067 1.067 0 1 1 .752 1.822h-.004a1.066 1.066 0 0 1-.747-1.822h-.002zM21.11 9.737l-.598 2.946-1.175-1.183 1.774-1.763zm-.606-.902-1.92 1.909-1.486-1.493 3.406-.416zM23.09 28.8a1.6 1.6 0 0 1 1.6 1.6v.534H1.224V30.4a1.6 1.6 0 0 1 1.6-1.6h20.267zm-7.467-2.134v1.067h-5.334v-1.067h5.334zM10.29 25.6v-4.053c0-1.294 1.196-2.346 2.666-2.346s2.667 1.053 2.667 2.346V25.6H10.29zm6.4-1.696v-2.357c0-1.882-1.675-3.413-3.733-3.413h-.058c-1.353 0-2.54.707-3.213 1.771l-.009.016a13.817 13.817 0 0 1-3.812-9.55c0-2.314.567-4.496 1.569-6.414l-.036.077L26 22.743c-1.823.947-3.979 1.502-6.266 1.502-1.079 0-2.128-.124-3.136-.357l.093.018zm11.289-.684L6.922 2.039l.754-.752 7.935 7.98c.004 0 .006.007.01.01l13.115 13.191-.757.752z"/><path fill="#2196f3" style="fill:var(--color1, #2196f3)" d="M12.961 20.267h-.007a1.6 1.6 0 0 0-.003 3.2h.007a1.6 1.6 0 0 0 .002-3.2zm.373 1.978a.534.534 0 1 1-.378-.912.533.533 0 0 1 .374.911h.005z"/></symbol><symbol id="icon-astronaut" viewBox="0 0 32 32"><path fill="#2196f3" style="fill:var(--color1, #2196f3)" d="M31.974 4.524a.535.535 0 0 0-.427-.362h-.003l-1.911-.278-.855-1.731c-.179-.365-.777-.365-.956 0l-.855 1.731-1.911.278a.534.534 0 0 0-.296.91l1.383 1.348-.326 1.903a.532.532 0 0 0 .774.562l1.709-.899 1.709.899a.534.534 0 0 0 .773-.565v.003l-.326-1.903 1.383-1.348a.535.535 0 0 0 .134-.55l.001.004zm-2.463 1.327a.53.53 0 0 0-.153.472l.191 1.114-1-.526a.525.525 0 0 0-.501.001l.003-.001-1 .526.191-1.114a.53.53 0 0 0-.152-.472l-.811-.79 1.119-.162a.532.532 0 0 0 .402-.292l.5-1.013.5 1.013a.532.532 0 0 0 .402.292l1.119.162-.809.79zm-3.377 14.671h-1.067v1.067h1.067v-1.067zm0 2.134h-1.067v1.066h1.067v-1.066zm1.066-1.067h-1.067v1.067H27.2v-1.067zm-2.133 0H24v1.067h1.067v-1.067zm-2.667 4.8h-1.067v1.067H22.4v-1.067zm0 2.134h-1.067v1.067H22.4v-1.067zm1.067-1.067H22.4v1.067h1.067v-1.067zm-2.133 0h-1.067v1.067h1.067v-1.067zM16 24.256h-1.066v1.067H16v-1.067zm0 2.133h-1.066v1.067H16v-1.067zm1.067-1.067H16v1.067h1.067v-1.067zm-2.133 0h-1.067v1.067h1.067v-1.067zm-9.067-19.2H4.801v1.066h1.066V6.122zm0 2.134H4.801v1.066h1.066V8.256zm1.066-1.067H5.866v1.067h1.066V7.189zm-2.133 0H3.733v1.067H4.8V7.189z"/><path fill="#212121" style="fill:var(--color4, #212121)" d="M24.715 14.16a1.774 1.774 0 0 0-1.179-.703l-.009-.001a1.769 1.769 0 0 0-1.344.355l.004-.003-1.253.96-1.898 1.417-1.358-.541c2.421-1.086 4.113-3.508 4.113-6.32 0-3.823-3.122-6.934-6.961-6.934S7.869 5.5 7.869 9.324c0 1.386.415 2.674 1.12 3.759l-2.768-.024c-.009 0-.016.005-.023.005a.511.511 0 0 0-.159.033l.004-.001c-.013.005-.026.007-.038.013-.006.003-.013.003-.019.006l-3.233 1.596-.001.001-1.893.91a.5.5 0 0 0-.065.036l.001-.001a1.782 1.782 0 0 0-.594 2.306l-.005-.01c.22.424.592.742 1.043.885l.013.003a1.772 1.772 0 0 0 1.388-.133l-.009.005 1.388-.738 2.264-1.169 1.357-.008-5.442 5.415-.001.001-1.339 1.333a1.643 1.643 0 0 0-.491 1.173v.005a1.668 1.668 0 0 0 1.667 1.664h.002a1.67 1.67 0 0 0 1.18-.485l1.314-1.309 1.741-1.3.901.897L4.07 27.28a1.643 1.643 0 0 0-.491 1.173v.004a1.662 1.662 0 0 0 1.666 1.664h.003a1.67 1.67 0 0 0 1.18-.485l4.488-4.472c.007-.006.016-.009.022-.016l5.166-5.658 3.471.494a.474.474 0 0 0 .262-.032c.017-.006.032-.015.049-.023.019-.01.039-.015.058-.027l3.213-2.133c.012-.008.018-.021.029-.03.013-.01.029-.014.041-.026l1.271-1.191c.348-.326.564-.787.564-1.3 0-.4-.132-.769-.355-1.066l.003.005zM2.13 17.77a.706.706 0 0 1-.564.05l.005.001a.717.717 0 0 1-.215-1.258l.002-.001 1.314-.632.316.924.133.389-.992.527zm3.497-1.828-1.548.8-.255-.746-.184-.537 2.027-1.001-.04 1.484zm15.1-6.62c0 .918-.219 1.785-.599 2.56l-4.181-1.899a1.865 1.865 0 0 0-.782-1.384l-.006-.004 1.464-4.861c2.377.757 4.104 2.975 4.104 5.588zm-11.789 0c0-3.235 2.644-5.867 5.894-5.867.253 0 .5.022.745.053l-1.432 4.753c-.019 0-.037-.006-.057-.006h-.001a1.872 1.872 0 0 0-1.872 1.867 1.873 1.873 0 0 0 1.872 1.867h.001c.695 0 1.295-.383 1.618-.944l3.863 1.755a5.891 5.891 0 0 1-4.737 2.39c-3.25 0-5.894-2.632-5.894-5.867zm5.957.8c0 .441-.362.8-.806.8h-.001a.804.804 0 0 1-.804-.8c0-.441.361-.8.806-.8s.806.359.806.8zM2.464 25.146a.606.606 0 0 1-.855.001.591.591 0 0 1 0-.844l.962-.959.852.848-.959.954zm3.214 3.734a.606.606 0 0 1-.855.001.591.591 0 0 1 0-.844l.963-.959.852.848-.96.955zm3.482-3.469-.001.001-1.765 1.76-.852-.848 1.765-1.757a.527.527 0 0 0 .09-.136c.007-.014.02-.026.026-.04.016-.041.019-.085.026-.128.003-.025.014-.048.014-.073 0-.035-.013-.07-.02-.105-.006-.032-.006-.064-.019-.096a.536.536 0 0 0-.092-.138c-.01-.012-.014-.026-.025-.038h-.001l-.001-.002-1.607-1.6c-.017-.017-.039-.024-.058-.038a.491.491 0 0 0-.084-.056l-.003-.001a.527.527 0 0 0-.09-.031l-.003-.001a.502.502 0 0 0-.101-.02h-.025a.603.603 0 0 0-.075.005h.003c-.036.005-.069.009-.104.021s-.064.027-.094.045c-.02.011-.043.015-.061.029l-1.774 1.324-.901-.897 2.399-2.386 4.36 4.289-.928.919zm6.819-7.017c-.016-.002-.03.004-.046.003l-.027-.001a.562.562 0 0 0-.092.008h.003a.484.484 0 0 0-.187.07l.002-.001a.492.492 0 0 0-.083.061c-.013.011-.028.016-.04.029l-4.698 5.146-4.328-4.256 2.833-2.818a.535.535 0 0 0-.378-.911h-.002l-2.219.013.028-1.607 3.104.027a6.928 6.928 0 0 0 4.978 2.101h.003c.438 0 .864-.046 1.28-.122.04.032.08.064.129.085l2.41.96.152.758.178.886-3.003-.427zm4.041.178-.313-1.558 1.446-1.08.946 1.257-2.08 1.381zm3.753-2.831-.837.785-.931-1.236.831-.637a.735.735 0 0 1 .543-.143.718.718 0 0 1 .621.71.71.71 0 0 1-.226.521z"/><path fill="#212121" style="fill:var(--color4, #212121)" d="m13.602 18.544-2.143-2.134a.53.53 0 0 0-.752 0l-2.143 2.133a.535.535 0 0 0 0 .756l2.142 2.134a.53.53 0 0 0 .752 0l2.143-2.134a.532.532 0 0 0 0-.756zm-2.519 1.759-1.387-1.381 1.386-1.381 1.387 1.381-1.387 1.381zm6.081-15.232-.258 1.036c.071.018 1.738.452 1.738 2.149h1.067c0-2.017-1.666-2.965-2.547-3.184zm2.547 4.251h-1.067v1.066h1.067V9.322z"/></symbol><symbol id="icon-brand" viewBox="0 0 32 32"><path fill="#afb1b8" style="fill:var(--color2, #afb1b8)" d="M2.416 23.738c.124.14.189.316.186.496l.001.038a.73.73 0 0 1-.069.31l.002-.004a.792.792 0 0 1-.221.282l-.002.001a1.322 1.322 0 0 1-.843.228h.004-1.475v-3.144h1.445a1.313 1.313 0 0 1 .805.211l-.005-.003a.739.739 0 0 1 .216.264.656.656 0 0 1 .064.325.686.686 0 0 1-.168.48.802.802 0 0 1-.44.246.85.85 0 0 1 .498.269zm-1.73-.474h.618a.631.631 0 0 0 .393-.105.368.368 0 0 0 .104-.137l.001-.002a.344.344 0 0 0 .029-.138l-.001-.031v.001a.359.359 0 0 0-.029-.169l.001.002a.381.381 0 0 0-.103-.14.63.63 0 0 0-.406-.106h.002-.608v.825zm1.071 1.206a.4.4 0 0 0 .113-.142l.001-.002a.351.351 0 0 0 .033-.15l-.001-.026v.001l.001-.023a.376.376 0 0 0-.035-.157l.001.002a.408.408 0 0 0-.115-.144l-.001-.001a.673.673 0 0 0-.378-.115l-.043.001h.002-.648v.865h.656a.688.688 0 0 0 .414-.109zm3.612.621-.803-1.229h-.302v1.229h-.691v-3.145h1.309a1.368 1.368 0 0 1 .914.27l-.004-.003a.964.964 0 0 1 .313.7.946.946 0 0 1-.217.603l.001-.002a1.09 1.09 0 0 1-.618.319l-.006.001.856 1.257h-.752zm-1.105-1.658h.565c.393 0 .589-.158.589-.476l.001-.025a.427.427 0 0 0-.034-.168l.001.003a.484.484 0 0 0-.112-.163.646.646 0 0 0-.39-.13l-.057.002h.002-.572l.007.957zm4.884 1.024H7.77l-.243.633h-.725l1.265-3.11h.784l1.26 3.11h-.724l-.238-.633zm-.184-.476-.503-1.327-.503 1.327h1.007zm4.914 1.11h-.686l-1.539-2.138v2.138h-.685v-3.145h.685l1.539 2.151v-2.151h.686v3.145zm3.917-.753a1.433 1.433 0 0 1-.621.555 2.138 2.138 0 0 1-.909.199l-.059-.001h.003-1.221v-3.145h1.222l.057-.001c.329 0 .641.071.922.199l-.014-.006c.263.122.479.313.621.549.141.256.215.538.215.825s-.074.569-.215.825zm-.786-.075c.186-.195.301-.459.303-.75a1.1 1.1 0 0 0-.303-.75 1.259 1.259 0 0 0-.863-.267h.004-.476v2.036h.476c.024.002.051.002.079.002.296 0 .568-.102.783-.272l-.003.002zM9.578 4.453s8.857 3.062 8.67 7.493v7.494s-8.851-3.063-8.667-7.494l-.003-7.493zm16.56 13.232a12.85 12.85 0 0 1 5.628-1.899v-2.347c-2.327.822-4.302 2.311-5.628 4.245z"/><path fill="#afb1b8" style="fill:var(--color2, #afb1b8)" d="M25.134 18.392c1.369-2.524 3.742-4.472 6.633-5.444v-6.76S19.152 10.55 19.419 16.859v10.67s.562-.195 1.447-.561c0-.341 0-.685.041-1.031.261-2.929 1.781-5.643 4.228-7.546z"/><path fill="#afb1b8" style="fill:var(--color2, #afb1b8)" d="M23.934 22.356c.066-.74.214-1.472.441-2.185-1.524 1.643-2.446 3.683-2.638 5.831a8.806 8.806 0 0 0-.034.615 35.154 35.154 0 0 0 2.629-1.27l-.203.1a10.095 10.095 0 0 1-.196-3.09zm.502.038a9.713 9.713 0 0 0 .167 2.861l-.011-.063c3.446-1.889 7.319-4.806 7.17-8.332v-.307c-2.462.252-4.766 1.238-6.557 2.805a9.547 9.547 0 0 0-.765 2.998l-.003.038z"/></symbol><symbol id="icon-clock" viewBox="0 0 32 32"><path fill="#212121" style="fill:var(--color4, #212121)" d="M31.297 15.301C31.295 6.849 24.442-.002 15.989 0S.686 6.855.688 15.308a15.304 15.304 0 0 0 10.649 14.576.662.662 0 0 0 .529-.065.637.637 0 0 0 .283-.356l3.865-12.25a1.912 1.912 0 1 0-.84-3.635l-5.106-5.107a.637.637 0 0 0-.902.902l5.103 5.109a1.876 1.876 0 0 0 .536 2.309l-3.683 11.673C3.844 25.783.118 17.71 2.799 10.432S13.553-.572 20.831 2.109s11.004 10.754 8.323 18.032a14.042 14.042 0 0 1-7.462 7.973l-.398-1.874a.638.638 0 0 0-1.048-.344l-3.837 3.426a.637.637 0 0 0 .231 1.084l4.899 1.563a.638.638 0 0 0 .819-.74l-.391-1.839a15.255 15.255 0 0 0 9.329-14.089zm-15.305-.637a.638.638 0 1 1 0 1.277.638.638 0 0 1 0-1.277zm2.101 14.864 2.184-1.948.603 2.84-2.787-.892z"/><path fill="#2196f3" style="fill:var(--color1, #2196f3)" d="M15.354 3.185V4.46a.638.638 0 1 0 1.276 0V3.185a.638.638 0 0 0-1.276 0zM3.876 14.664a.638.638 0 0 0 0 1.276h1.275a.638.638 0 1 0 0-1.276H3.876zM28.108 15.939a.638.638 0 1 0 0-1.276h-1.275a.638.638 0 0 0 0 1.276h1.275z"/></symbol><symbol id="icon-company" viewBox="0 0 32 32"><path fill="#afb1b8" style="fill:var(--color2, #afb1b8)" d="M14.224 1.806h-.084a9.985 9.985 0 0 0-.388-.014h-.28c-.244 0-.494.006-.741.018l-.028-.001-.029.001h.001a17.353 17.353 0 0 0-6.576 1.696l.104-.045-.266.128v13.626l.623-.212a23.32 23.32 0 0 1 1.731-.513c1.488-.398 3.202-.638 4.967-.661h.014v1.79c-.223.001-.439.007-.655.018h-.052a20.051 20.051 0 0 0-3.971.619l.139-.031a19.399 19.399 0 0 0-4.666 1.83l.1-.051V2.529A17.896 17.896 0 0 1 8.832.608L8.959.58a17.862 17.862 0 0 1 4.51-.582h.267c.314.008.622.022.91.044.829.06 1.597.187 2.339.378l-.09-.02v1.762a13.17 13.17 0 0 0-2.134-.326l-.045-.003-.044-.004c-.152-.013-.304-.026-.446-.026zm3.101 1.801c.391.03.796.044 1.205.044a19.413 19.413 0 0 0 4.881-.639l-.135.03a19.492 19.492 0 0 0 4.665-1.831l-.101.051v17.163a17.972 17.972 0 0 1-4.664 1.921l-.127.028a17.962 17.962 0 0 1-4.511.581h-.115c-1.177 0-2.319-.147-3.409-.425l.095.021V3.276c.265.062.537.118.814.164.455.077.934.133 1.401.167zm8.735.133-.623.209c-.572.193-1.151.365-1.731.518-1.551.415-3.332.657-5.169.663h-.004c-.406 0-.78-.011-1.141-.034l-.497-.033V19.08l.426.037c.395.035.803.052 1.214.052a16.554 16.554 0 0 0 4.189-.553l-.116.026a16.96 16.96 0 0 0 3.285-1.189l-.102.044.266-.128V3.739zM5.377 25.977a.916.916 0 0 0-.661-.281l-.034.001h.002-.014c-.139 0-.272.028-.393.078l.007-.003a.904.904 0 0 0-.51.512l-.002.006a1.001 1.001 0 0 0-.071.386v2.335c-.006.164.026.328.092.479.055.12.135.226.234.313a.824.824 0 0 0 .32.166c.114.031.231.048.349.048a.985.985 0 0 0 .968-.982v-.261h-.611v.222c0 .07-.013.136-.037.198l.001-.004a.392.392 0 0 1-.088.132.426.426 0 0 1-.255.089.308.308 0 0 1-.286-.125l-.001-.001a.548.548 0 0 1-.082-.289l.001-.024v.001-2.177a.74.74 0 0 1 .075-.349.31.31 0 0 1 .262-.143l.038.002h-.002.012c.107 0 .201.052.26.131l.001.001a.493.493 0 0 1 .101.3v.014-.001.202h.604v-.249c0-.143-.027-.28-.077-.405l.003.007a.955.955 0 0 0-.205-.329zm3.625-.026a1.051 1.051 0 0 0-1.058-.191.965.965 0 0 0-.557.511l-.002.006a1.08 1.08 0 0 0-.089.452v2.239c-.004.158.026.314.089.458a.888.888 0 0 0 .236.313.964.964 0 0 0 .322.197 1.049 1.049 0 0 0 1.059-.198l-.001.001a.948.948 0 0 0 .23-.313c.063-.144.093-.301.089-.458v-2.259c0-.156-.033-.305-.092-.439l.003.007a1.016 1.016 0 0 0-.23-.327zm-.284 3.018.002.035a.398.398 0 0 1-.123.289.446.446 0 0 1-.575 0l.001.001a.398.398 0 0 1-.121-.326v.002-2.239l-.001-.034a.4.4 0 0 1 .123-.289.446.446 0 0 1 .575 0l-.001-.001a.398.398 0 0 1 .121.326v-.002 2.24zm5.046 1v-4.24h-.586l-.771 2.244h-.01l-.777-2.244h-.58v4.239h.606V27.39h.011l.593 1.823h.302l.598-1.823h.01v2.578h.606zm3.441-3.942a.834.834 0 0 0-.342-.232 1.31 1.31 0 0 0-.416-.066h-.024.001-.9v4.24h.604v-1.656h.311c.189.009.376-.031.545-.116a.88.88 0 0 0 .329-.32l.002-.004a1 1 0 0 0 .138-.369c.021-.133.033-.287.033-.444v-.04.002a2.426 2.426 0 0 0-.059-.606.906.906 0 0 0-.223-.39zm-.311 1.292a.538.538 0 0 1-.057.224l.001-.003a.342.342 0 0 1-.154.147l-.002.001a.617.617 0 0 1-.254.054l-.033-.001h.002-.276V26.3h.311l.029-.001c.088 0 .172.02.247.055l-.004-.002a.35.35 0 0 1 .141.154l.001.002a.62.62 0 0 1 .053.236v.282c0 .098.006.201 0 .291h-.006zm3.172-1.59h-.495l-.934 4.24h.604l.177-.911h.823l.178.911h.604l-.958-4.24zm-.557 2.752.297-1.537h.011l.295 1.537h-.604zm4.46-.198h-.011l-.912-2.554h-.581v4.24h.604v-2.55h.012l.923 2.549h.568v-4.239h-.604v2.554zm3.691-2.554-.486 1.686h-.012l-.486-1.686h-.639l.83 2.448v1.791h.604v-1.791l.83-2.447h-.64zM3.692 31.166h.291v.817h.198v-.817h.289v-.167h-.778v.168zm2.448-.168-.382.985h.21l.081-.224h.392l.084.224h.215l-.391-.985h-.21zm-.031.595.134-.365.134.365h-.268zm2.45.027h.228v.127a.378.378 0 0 1-.234.083h-.014a.25.25 0 0 1-.195-.094.406.406 0 0 1-.073-.234l.001-.023v.001c0-.219.095-.329.283-.329l.021-.001c.097 0 .178.067.201.157v.001l.194-.038c-.042-.192-.18-.289-.417-.289h-.013a.492.492 0 0 0-.331.127.48.48 0 0 0-.141.38v-.002.023c0 .132.048.254.127.347l-.001-.001c.087.09.209.146.343.146L8.57 32h-.001.016c.155 0 .296-.06.402-.157v-.388h-.426v.166zm2.471-.622h-.199v.985h.689v-.167h-.49v-.817zm2.089 0h-.199v.985h.199v-.985zm2.042.657-.404-.657h-.193v.985h.185v-.643l.396.643h.198v-.985h-.182v.658zm1.846-.106h.49v-.167h-.49v-.215h.527v-.168h-.727v.985h.747v-.167h-.548v-.266zm4.477-.163h-.388v-.388h-.197v.984h.197v-.431h.388v.431h.198v-.985h-.198v.388zm1.858.163h.492v-.167h-.492v-.215h.529v-.168h-.726v.985h.746v-.167h-.548v-.266zm2.518.001c.171-.027.258-.118.258-.274a.23.23 0 0 0-.096-.219h-.001a.555.555 0 0 0-.25-.059l-.04.001h.002-.417v.984h.198v-.412h.055c.039 0 .076.008.109.023l-.002-.001a.201.201 0 0 1 .07.072l.215.313h.236l-.12-.192a.704.704 0 0 0-.215-.235l-.002-.002zm-.199-.137h-.146v-.247h.156a.515.515 0 0 1 .205.024l-.004-.001a.13.13 0 0 1-.009.2.537.537 0 0 1-.164.025l-.039-.001h.002zm2.099.136h.49v-.167h-.49v-.215h.529v-.168h-.729v.985h.747v-.167h-.548v-.266z"/></symbol><symbol id="icon-diagrama" viewBox="0 0 32 32"><path d="M1.599 28.291h25.586a1.6 1.6 0 0 0 1.599-1.599V24.56a1.6 1.6 0 0 0-1.599-1.599h-.533V9.667l3.028-2.868a1.608 1.608 0 1 0-.742-.752l-.004-.01-2.281 2.162v-1.23a1.6 1.6 0 0 0-1.599-1.599H3.731a1.6 1.6 0 0 0-1.599 1.599v15.992h-.533A1.6 1.6 0 0 0 0 24.56v2.132a1.6 1.6 0 0 0 1.599 1.599zM30.384 4.837a.533.533 0 0 1 0 1.066.533.533 0 0 1 0-1.066zM3.198 6.969c0-.294.239-.533.533-.533h21.323c.294 0 .533.239.533.533v2.239l-1.066 1.013V8.036a.534.534 0 0 0-.534-.534H4.798a.534.534 0 0 0-.534.533v13.327c0 .294.239.533.534.533h19.189a.534.534 0 0 0 .534-.533v-9.675l1.066-1.01V22.96H3.198V6.97zm4.798 6.93h-.005a1.6 1.6 0 1 0 1.112 2.748l1.853.93a.533.533 0 0 0 .636-.123l3.939-4.431 3.872 2.902a.534.534 0 0 0 .686-.039l3.365-3.188v8.131H5.331V8.568h18.123v2.661l-3.771 3.572-3.904-2.927a.534.534 0 0 0-.718.071v.001l-3.993 4.493-1.493-.746c.011-.064.017-.128.02-.193a1.6 1.6 0 0 0-1.599-1.599zm.533 1.599a.533.533 0 0 1-1.066 0 .533.533 0 0 1 1.066 0zm3.198 8.528h5.33v.533a.533.533 0 0 1-.533.533h-4.265a.533.533 0 0 1-.533-.533v-.533zm-10.66.534c0-.294.238-.533.533-.533h9.062v.533a1.6 1.6 0 0 0 1.599 1.599h4.265a1.6 1.6 0 0 0 1.599-1.599v-.533h9.062c.294 0 .533.239.533.533v2.132a.533.533 0 0 1-.533.533H1.601a.533.533 0 0 1-.533-.533V24.56z"/></symbol></defs></svg>